<svg width="1454" height="1490" xmlns="http://www.w3.org/2000/svg" xmlns:xlink="http://www.w3.org/1999/xlink" xml:space="preserve" overflow="hidden"><g transform="translate(-1468 -496)"><path d="M651.853 1239.6C650.273 1238.62 635.665 1236.84 619.279 1235.66 603.09 1234.27 579.4 1232.5 566.765 1231.51 554.131 1230.52 539.917 1228.75 535.179 1227.76 530.441 1226.58 521.162 1225.59 514.647 1225.59 508.132 1225.59 495.695 1224.21 487.008 1222.63 478.322 1221.05 468.056 1219.67 464.305 1219.67 460.554 1219.67 450.289 1218.48 441.602 1216.9 432.916 1215.32 416.925 1212.56 406.067 1210.79 395.209 1209.01 380.995 1206.25 374.48 1204.86 367.965 1203.48 355.527 1200.72 346.841 1198.94 338.155 1197.17 325.717 1194.2 319.203 1192.63 312.688 1190.85 303.014 1188.48 297.486 1186.9 292.156 1185.52 281.89 1182.95 274.784 1181.18 267.676 1179.4 257.805 1176.83 252.87 1175.26 247.737 1173.68 242.407 1172.29 240.827 1172.29 238.063 1172.29 203.713 1161.24 162.255 1146.83 152.976 1143.67 140.341 1138.74 133.827 1135.97 127.509 1133.21 121.192 1130.84 119.81 1130.84 116.059 1130.84 98.0938 1121.57 95.3299 1118.21 93.5533 1116.04 93.1582 1039.85 93.7504 786.991 94.5402 445.113 94.5402 439.981 102.832 402.279 103.819 397.542 106.188 386.488 107.965 377.803 109.939 369.118 112.308 359.446 113.295 356.09 114.48 352.932 116.059 347.602 116.849 344.247 117.638 341.089 120.205 331.219 122.771 322.534L126.917 306.743 122.969 303.585C120.797 301.808 114.282 299.242 108.557 298.058 81.5105 292.136 52.8849 285.03 41.8294 281.675 38.0786 280.49 31.7611 278.714 28.0104 277.924 12.8091 274.569-1.60252 267.462-1.60252 263.318-1.60252 257.791 9.05792 240.618 30.5767 211.009 38.4733 200.35 50.5161 183.375 57.6229 173.505 87.4333 131.461 86.6436 132.843 82.6953 121.79 77.3647 106.788 65.3223 74.0214 62.3609 65.9281 60.5843 61.5858 58.6102 55.4668 57.6229 52.1112 55.4516 44.4129 51.898 33.9512 48.5419 26.0558 47.16 22.5027 45.383 15.1995 44.5933 9.86963 42.8166-3.15808 44.5933-3.75019 68.0862 1.38213 77.9573 3.55348 93.3558 6.71156 102.042 8.29079 110.729 10.0671 123.166 12.436 129.681 13.8177 136.195 15.0019 146.856 16.7783 153.371 17.5679 176.469 20.5289 183.971 26.4504 178.048 37.5043 175.482 42.2416 163.44 42.6362 145.869 38.4914 126.325 33.7537 96.9094 29.0164 86.2485 28.8193 77.1676 28.4243 76.3778 28.8193 75.7856 33.1616 75.3906 35.7279 76.3778 41.0574 77.9573 45.0051 79.7339 48.9527 83.4847 58.4274 86.2485 65.9281 89.21 73.6264 92.7636 82.5089 94.343 85.667 98.0938 94.1549 102.832 107.577 106.583 120.605 110.334 133.83 108.557 141.726 99.0811 153.766 92.3685 162.452 71.2448 192.257 42.0269 235.091 30.9714 251.079 29.9845 257.593 38.4733 259.172 48.7391 260.949 79.3392 268.647 92.1714 272.595 108.952 277.53 135.406 279.503 139.749 275.95 141.329 274.569 144.685 269.042 147.251 263.515 149.817 257.988 154.753 247.526 158.109 240.026 161.465 232.722 164.229 224.234 164.229 220.879 164.229 215.352 163.637 214.957 147.449 209.825 133.432 205.482 130.471 203.903 129.483 199.758 128.496 196.402 129.483 193.639 132.839 190.086 137.775 184.756 141.131 184.362 153.174 187.52 166.401 190.876 181.997 194.626 198.777 198.377 207.464 200.153 219.506 202.916 225.429 204.496 231.351 205.877 237.866 207.062 240.235 207.062 242.407 207.062 250.698 208.443 258.595 210.023 288.01 216.142 305.778 219.497 352.764 227.59 397.972 235.485 494.313 246.539 562.027 251.672 622.832 256.409 803.076 256.409 875.923 251.672 933.372 247.921 988.649 242.197 1050.64 233.512 1089.13 228.182 1154.28 216.536 1182.32 209.825 1189.03 208.443 1196.93 207.062 1199.89 207.062 1202.85 207.062 1210.35 205.877 1216.27 204.298 1226.74 201.732 1232.66 200.35 1270.76 192.257 1279.45 190.283 1290.9 187.52 1296.03 185.941 1304.52 183.375 1305.9 183.375 1310.24 186.138 1320.9 193.047 1317.75 205.482 1304.72 207.654 1294.25 209.43 1283.59 214.76 1283.59 218.313 1283.59 222.655 1308.27 272.792 1312.02 275.95 1316.96 280.095 1339.46 277.53 1369.47 269.437 1384.67 265.291 1400.46 261.146 1404.41 260.357 1412.51 258.777 1417.84 255.224 1417.84 251.672 1417.64 250.487 1409.35 237.459 1399.08 222.853 1388.82 208.246 1371.64 182.98 1360.78 166.991 1338.47 134.225 1337.68 131.461 1344.99 113.696 1347.36 107.972 1351.7 97.313 1354.66 89.6151 1357.62 82.1143 1362.95 69.0866 1366.31 60.9937 1369.86 52.7033 1372.83 42.0441 1373.02 37.3068L1373.42 28.4243 1363.55 28.8193C1358.22 29.0164 1347.56 30.3981 1339.86 32.1749 1305.11 39.6756 1295.83 41.2545 1286.16 41.2545 1277.27 41.2545 1275.3 40.4652 1272.54 36.32 1265.63 25.8583 1270.76 23.2923 1315.18 14.6069 1350.12 7.89578 1360.19 5.92194 1380.52 1.57963 1392.17-0.789221 1403.03-2.17095 1404.81-1.57884 1409.15 0.197901 1408.76 6.31694 1402.83 22.5027 1400.27 30.201 1395.73 42.6362 1393.16 50.137 1390.59 57.8353 1386.64 68.8891 1384.28 74.8107 1381.91 80.7326 1379.34 87.8384 1378.35 90.6018 1377.37 93.3653 1374.8 100.471 1372.43 106.393 1363.55 128.698 1363.15 131.264 1368.48 138.37 1372.83 144.094 1392.17 172.716 1408.76 197.192 1411.91 202.127 1415.27 206.469 1415.86 207.062 1419.42 210.023 1451.4 259.962 1451.4 262.528 1451.4 268.844 1445.48 271.608 1412.9 280.885 1398.29 284.833 1380.92 289.373 1366.51 292.728 1324.06 302.4 1325.05 302.006 1325.05 308.322 1325.05 311.678 1327.62 322.732 1330.78 333.193 1339.46 362.209 1347.16 396.95 1349.73 419.255 1354.07 455.969 1354.66 502.75 1354.66 793.307L1354.66 1114.06 1349.33 1119.2C1344.4 1123.74 1328.8 1131.04 1304.91 1139.92 1300.77 1141.5 1293.86 1144.07 1289.51 1145.65 1285.17 1147.23 1278.26 1149.79 1274.31 1151.37 1270.17 1152.95 1261.09 1155.91 1253.98 1158.28 1246.87 1160.45 1238.58 1163.02 1235.22 1164.2 1232.07 1165.19 1219.04 1168.94 1206.6 1172.49 1194.16 1175.85 1179.95 1179.79 1175.01 1181.18 1157.44 1186.31 1115.98 1196.18 1097.03 1199.93 1090.52 1201.31 1080.25 1203.48 1074.33 1204.86 1068.41 1206.44 1054.19 1209.01 1042.74 1210.79 1031.29 1212.56 1014.91 1215.13 1006.22 1216.71 991.807 1219.08 971.079 1222.04 929.028 1227.56 920.342 1228.75 901.982 1230.52 888.558 1231.51 829.332 1235.66 808.603 1237.63 804.26 1239.41 798.732 1241.78 655.999 1241.97 651.853 1239.6ZM818.672 1213.75C873.949 1211.57 940.281 1205.06 973.448 1198.74 981.344 1197.17 992.202 1195.98 997.335 1195.98 1002.67 1195.98 1009.38 1194.99 1012.34 1194.01 1015.3 1192.82 1027.15 1190.06 1038.6 1187.89 1091.31 1177.82 1126.05 1170.12 1163.17 1160.25 1171.26 1158.08 1181.13 1155.52 1184.88 1154.73 1188.63 1153.94 1194.95 1152.16 1198.7 1150.98 1202.45 1149.79 1210.94 1147.42 1217.46 1145.45 1223.97 1143.48 1238.19 1138.94 1249.04 1135.19 1259.9 1131.43 1272.73 1127.29 1277.67 1125.91 1286.16 1123.54 1300.57 1117.81 1321.5 1108.73 1328.01 1105.77 1330.97 1103.21 1331.96 1099.46 1334.13 1090.77 1330.97 440.573 1328.6 426.163 1323.47 394.384 1318.34 372.868 1306.89 336.351 1291.49 286.807 1265.82 231.735 1254.18 223.642 1249.83 220.484 1239.96 221.471 1213.51 227.788 1206.99 229.169 1194.16 231.932 1184.88 233.709 1153.3 239.828 1140.46 242.197 1125.06 245.355 1116.58 247.131 1106.51 248.513 1102.36 248.513 1098.41 248.513 1087.95 249.697 1079.26 251.277 1070.58 252.856 1052.81 255.619 1039.78 257.198 1026.75 258.975 1008.98 261.343 1000.3 262.528 984.305 264.502 940.874 268.844 902.574 272.003 891.124 272.989 871.185 274.766 857.958 276.148 826.371 279.108 584.928 277.924 561.04 274.569 551.762 273.384 533.599 271.41 520.57 270.029 507.54 268.844 489.378 267.068 480.099 266.081 470.82 264.896 452.263 262.923 438.641 261.343 425.019 259.764 407.251 257.593 399.157 256.409 391.063 255.224 374.677 253.053 362.635 251.277 342.498 248.513 333.022 246.934 288.603 239.433 262.741 234.893 241.222 230.748 229.377 227.788 210.03 222.853 199.962 222.261 194.632 225.813 191.67 227.788 184.563 239.828 175.284 258.975 155.74 299.44 154.556 302.4 143.895 336.351 138.762 352.735 133.234 370.105 131.655 375.04 130.076 380.172 128.694 386.488 128.694 389.252 128.694 392.015 127.707 396.752 126.522 399.911 125.337 402.871 122.969 412.938 121.192 422.216 118.428 437.02 118.033 477.09 117.441 767.646 117.046 948.257 117.046 1098.08 117.836 1100.64 119.02 1105.77 135.406 1114.26 159.096 1121.96 166.796 1124.53 181.997 1129.86 192.855 1133.8 203.713 1137.95 215.361 1141.9 218.519 1142.69 221.875 1143.67 231.549 1146.44 240.235 1149.2 248.921 1151.77 261.754 1155.52 268.861 1157.49 275.968 1159.27 285.642 1162.03 290.577 1163.41 295.512 1164.79 306.173 1167.56 314.267 1169.33 322.361 1171.11 334.404 1173.68 340.919 1175.26 347.433 1176.64 359.871 1179.2 368.557 1180.98 377.244 1182.56 391.458 1185.32 400.144 1186.9 450.683 1196.77 483.85 1201.9 494.905 1201.9 499.248 1201.9 510.304 1203.09 519.582 1204.67 572.688 1213.55 718.58 1218.09 818.672 1213.75Z" fill="#F0E6D0" fill-rule="evenodd" transform="matrix(1 0 0 -1 1470 1738)"/><path d="M36.4912 220.83C23.2647 215.3 11.2222 204.041 4.51018 190.609-1.01745 179.745-1.60964 176.387-1.60964 160.98-1.60964 134.512 5.69456 113.969 25.831 84.142 37.8731 66.1674 48.9284 53.5255 77.9485 24.6865 103.218-0.596901 110.719-5.33751 118.023-1.18943 125.328 2.95866 179.419 58.8586 191.067 74.2659 212.782 103.302 227.194 137.474 227.391 160.388 227.391 177.967 215.941 201.275 201.924 212.337 178.432 230.509 149.018 228.139 125.92 206.214 119.405 199.893 112.891 194.757 111.509 194.757 110.324 194.757 104.402 199.498 98.6768 205.226 80.7123 222.806 56.4301 228.929 36.4912 220.83Z" fill="#F0E6D0" fill-rule="evenodd" transform="matrix(1 0 0 -1 2086 868)"/><path d="M46.6454 180.391C43.6979 178.618 43.1085 175.271 43.1085 157.354 43.1085 143.375 42.3225 135.302 40.7508 133.727 39.1788 132.152 31.9087 131.365 21.2979 131.365 2.23822 131.365-2.08473 129.199-2.08473 119.748-2.08473 111.085 1.05938 109.707 19.7259 109.707 33.0875 109.707 37.2139 108.919 39.3754 106.556 41.5364 103.997 42.1263 92.3801 42.3225 55.7583 42.7157 2.79416 43.6979-2.52184 52.7367-2.52184 64.5263-2.52184 64.7225-1.5372 64.7225 54.3801 64.7225 91.0018 65.3119 105.572 67.0806 107.344 68.6526 108.919 75.9227 109.707 86.5331 109.707 105.2 109.707 109.916 111.872 109.916 120.536 109.916 128.214 103.038 131.365 86.1403 131.365 63.7402 131.365 64.7225 130.38 64.7225 154.401 64.7225 165.624 63.7402 176.65 62.7576 178.815 60.3999 182.95 52.3434 183.738 46.6454 180.391Z" fill="#F0E6D0" fill-rule="evenodd" transform="matrix(1 0 0 -1 2412 842)"/><path d="M49.5124 163.54C47.7186 160.782 44.929 153.494 43.3346 147.387 41.7402 141.28 39.7474 133.795 38.7508 130.446 30.5802 103.262 28.3884 94.7918 26.7939 79.4267 24.0039 54.4096 21.6123 48.6969 9.6555 35.8929 3.67668 29.7864-1.10613 23.286-1.10613 21.5129-1.10613 18.3613 19.2211-2.51948 22.4095-2.51948 23.2067-2.51948 31.5768 4.96598 40.744 14.2245L57.683 30.9682 58.2808 72.5322C58.8786 112.521 58.8786 114.293 54.893 117.839 49.5124 122.764 49.7118 124.339 55.4908 128.082 59.8752 131.037 60.2736 132.219 59.6758 145.614 59.2774 153.494 58.8786 161.373 58.8786 163.146 58.6796 168.858 53.2986 168.858 49.5124 163.54Z" fill="#F0E6D0" fill-rule="evenodd" transform="matrix(1 0 0 -1 1886 836)"/><path d="M-1.06744 162.131C-1.66379 138.212-0.669599 128.922 3.10745 126.154 6.8849 123.585 8.67397 117.852 5.69179 118.247-1.46487 119.433-1.46487 119.038-0.272162 80.096 0.523112 59.1426 1.91474 38.5845 2.90853 34.6311 5.09544 25.1427 29.7469-2.53186 35.9098-2.53186 40.88-2.53186 58.7722 15.2588 58.7722 20.2008 58.7722 21.7819 54.9952 26.9216 50.4225 31.2706 38.6931 42.5379 34.916 48.6657 34.916 56.9681 34.916 65.0727 28.1568 103.224 25.3735 110.142 24.3793 112.91 21.9939 120.422 20.0055 126.945 18.2165 133.468 15.4332 142.363 13.8427 146.712 12.2525 151.259 11.0594 156.201 11.0594 157.98 11.0594 161.933 5.89071 167.468 1.91474 167.468 0.324193 167.468-0.868518 165.294-1.06744 162.131Z" fill="#F0E6D0" fill-rule="evenodd" transform="matrix(1 0 0 -1 1955 835)"/><path d="M65.3916 165.106C64.6063 164.517 64.0175 158.819 64.0175 152.532 64.0175 142.512 64.8027 140.351 70.8879 133.081 77.3654 125.419 81.684 114.809 81.684 106.951 81.684 102.039 84.8246 96.5373 88.5544 94.9654 90.9097 94.1799 92.4802 95.7514 94.6395 100.86 97.9765 108.522 101.902 111.076 106.025 107.54 109.754 104.593 117.017 90.6433 117.017 86.3207 117.017 84.5526 117.802 81.802 118.784 80.2301 120.354 77.8726 121.335 77.8726 125.654 80.8195 128.599 82.5879 131.739 83.5701 132.721 82.9807 136.647 80.6233 134.291 74.9254 124.869 63.1369 117.214 53.3135 112.502 49.7769 99.9394 43.4897 84.0394 35.8271 65.784 32.2909 63.2323 36.6131 62.447 37.7918 60.6805 38.7743 59.11 38.7743 57.5395 38.7743 52.6325 41.3284 47.9214 44.4722 41.2471 48.9909 37.5177 54.0994 30.6473 67.0663 22.4029 83.1773 16.9066 88.482 16.9066 80.0335 16.9066 77.8726 15.7289 76.1041 14.1584 76.1041 11.0179 76.1041 5.12877 87.4995 5.12877 93.5901 5.12877 99.4845-0.171117 98.6986-1.54519 92.608-4.29334 81.9982-0.956358 74.7288 13.1772 61.3688 26.1327 49.1875 28.2916 44.6684 21.6176 44.6684 20.0476 44.6684 16.1213 46.0437 12.9808 47.6156 4.34392 52.1343 5.12877 46.8297 13.962 38.9709 21.4216 32.4871 29.6657 31.1118 42.2287 34.845 50.8656 37.2024 61.2693 33.0765 64.0175 25.8071 66.5692 19.1271 64.6063 8.51772 59.8953 4.19518 57.9324 2.42668 56.7547 0.0692208 57.3435-0.716732 57.9324-1.69888 65.784-2.48483 75.0101-2.48483 88.358-2.48483 91.4986-1.89546 91.4986 0.461999 91.4986 2.03391 90.7137 3.40922 89.9285 3.40922 87.7691 3.40922 83.6469 15.3939 83.6469 21.2884 83.8433 26.9858 86.9839 31.3084 93.069 34.6484 96.7988 36.6131 99.743 36.6131 107.202 34.845 118.391 32.0943 128.402 34.4518 134.684 41.3284 139.591 46.4369 139.787 49.3837 134.88 46.4369 132.917 45.0616 129.776 44.6684 128.206 45.2581 125.458 46.2403 126.243 48.7943 132.721 61.3688 139.591 74.336 140.572 77.8726 140.572 89.0714 140.572 98.8952 139.591 103.807 136.45 108.719 131.347 117.167 128.795 117.167 128.795 108.719 128.795 99.288 126.047 98.502 117.606 105.379 110.736 111.076 110.539 111.862 110.736 122.668 111.128 131.313 110.343 135.046 107.399 138.582 105.239 140.94 103.276 142.905 102.688 142.905 102.099 142.905 101.117 138.582 100.332 133.081 99.3506 126.598 97.9765 123.258 96.2096 123.258 94.6395 123.258 93.4618 124.83 93.4618 126.598 93.4618 129.938 73.832 160.391 69.121 164.32 67.7469 165.499 65.9804 165.892 65.3916 165.106Z" fill="#F0E6D0" fill-rule="evenodd" transform="matrix(1 0 0 -1 2588 848)"/><path d="M11.4928 134.739C6.7396 132.954 1.98643 129.979 0.996008 128.393 0.00558211 126.806-0.78628 99.6374-0.78628 67.9076-0.78628 22.2954-0.192184 9.60321 1.78827 7.81856 3.76872 6.43036 7.9278 6.43036 17.236 7.81856 33.6741 10.595 52.2908 8.61187 69.3231 2.46418L82.9885-2.49373 94.0793 1.8693C110.517 8.01698 125.966 9.80164 144.384 7.81856 157.653 6.23193 161.218 6.43036 163.595 8.8103 165.971 10.9914 166.368 21.1057 166.17 69.2954 165.971 106.975 165.179 127.798 163.793 129.186 159.634 133.351 138.641 138.507 125.767 138.507 117.647 138.507 109.527 137.119 104.972 135.136 94.8716 130.773 70.3135 130.773 60.2131 135.334 50.1122 139.697 22.9796 139.498 11.4928 134.739ZM51.4986 121.452C58.2322 120.46 62.7876 118.279 67.7389 113.718L74.4726 107.372 74.4726 67.7092C74.4726 21.5021 73.8785 19.3206 61.2031 23.0888 57.044 24.2785 45.7554 26.0632 36.249 26.6585 26.5445 27.4514 18.2264 29.038 17.0382 30.4262 15.6518 32.0128 15.2555 48.6712 15.4537 75.2451L16.0478 117.486 20.9991 120.064C26.5445 122.84 37.4372 123.237 51.4986 121.452ZM145.77 117.684C149.533 114.313 149.731 111.536 149.731 74.2533 149.533 44.5066 148.939 33.5991 146.959 31.0211 145.176 28.4431 139.433 27.0549 124.777 25.6667 114.082 24.477 102.397 23.0888 98.8325 22.4939 93.6834 21.3037 92.4948 21.7006 91.3066 25.4683 89.5243 30.8231 89.5243 100.431 91.1088 108.165 93.4852 118.477 105.17 122.84 127.55 121.849 137.848 121.452 142.998 120.262 145.77 117.684Z" fill="#F0E6D0" fill-rule="evenodd" transform="matrix(1 0 0 -1 1661 841)"/><path d="M-0.34733 38.3627C-3.10771 33.3016-3.10771 24.152-0.150047 17.339 5.17343 4.68531 23.1159-8.35714 23.1159 0.208105 23.1159 1.76557 26.2705 6.43755 30.0169 10.72 38.1007 19.48 38.4953 22.011 32.5799 31.1602 25.0875 42.6455 19.1726 39.7254 19.1726 24.5416 19.1726 20.4535 18.3839 16.5603 17.201 15.7815 14.8348 14.4188 8.91983 25.3203 7.53964 34.0803 6.15945 41.8668 2.61033 43.8134-0.34733 38.3627Z" fill="#F0E6D0" fill-rule="evenodd" transform="matrix(1 0 0 -1 2615 749)"/><path d="M-2.38777 9.8858C-2.38777 6.45708 5.25756-2.61905 8.27559-2.61905 10.6897-2.61905 9.68395 3.43197 6.46461 8.47395 2.64215 14.3232-2.38777 15.13-2.38777 9.8858Z" fill="#F0E6D0" fill-rule="evenodd" transform="matrix(1 0 0 -1 2599 742)"/><path d="M21.0763 48.0551C19.5116 45.0939 18.9244 39.9617 19.7069 35.224 20.4895 28.3149 20.0984 27.1302 17.164 27.1302 15.0122 27.1302 12.8603 28.1174 12.2735 29.1046 10.5131 31.8678-2.3976 31.6707-2.3976 28.7095-2.3976 23.7744 19.9027-2.47989 24.2064-2.47989 25.38-2.47989 26.945 2.06022 27.7272 7.78504 28.5097 13.3123 30.4658 19.6289 32.0309 21.9979 35.552 27.3277 35.552 31.4732 31.4441 43.12 27.5318 53.977 24.9885 55.1614 21.0763 48.0551Z" fill="#F0E6D0" fill-rule="evenodd" transform="matrix(1 0 0 -1 2629 799)"/><path d="M16.5327 42.0589C14.9276 39.4956 12.5204 34.5667 11.3164 30.821 9.91203 27.0749 7.30407 22.1464 5.49865 19.9776 0.282324 14.0632-2.52638 7.95104-2.52638 2.43111-2.52638-3.87788 0.0815872-4.07514 2.89029 1.83931 5.09718 6.37409 9.51097 9.13424 26.1624 15.8374 34.7893 19.3862 35.5914 23.1319 29.5729 34.1725 27.366 38.3128 25.5606 42.6503 25.5606 44.0304 25.5606 48.1706 19.9432 46.9874 16.5327 42.0589Z" fill="#F0E6D0" fill-rule="evenodd" transform="matrix(1 0 0 -1 2666 807)"/><path d="M174.105 374.21C169.77 372.631 164.056 370.459 161.297 369.472 131.937 359.208 76.5668 334.533 62.7735 325.453 40.113 310.648 23.3642 283.605 23.3642 262.089 23.3642 254.193 28.2905 236.23 32.6252 228.334 41.4923 212.148 63.3646 193 85.4339 181.749 90.9513 178.985 105.139 171.484 116.962 165.168 128.981 158.851 145.73 149.968 154.4 145.625 177.455 133.782 195.78 119.964 204.647 107.331 211.938 97.066 212.529 95.4867 212.529 82.8532 212.529 69.2329 209.771 61.9294 202.874 56.2047 197.159 51.2701 192.036 53.6387 180.016 66.0747 166.617 80.0896 156.568 87.3936 136.666 96.8685 129.178 100.619 121.296 104.37 119.326 105.356 105.336 112.265 67.8965 121.148 61.9852 118.779 57.4533 117.2 42.6745 105.751 31.2459 95.0917 27.5022 91.5389 18.438 83.8403 11.1474 77.9186-1.85776 67.259-4.61643 63.1136-0.0844977 60.3501 1.09768 59.7579 9.76801 57.9815 19.029 56.4022 55.2857 50.8751 75.9757 41.7948 109.277 16.5281 122.282 6.46103 134.499-1.63215 136.469-1.63215 140.41-1.63215 154.006 4.68462 201.691 28.1745 242.086 48.1116 257.061 57.1919 269.475 69.6279 289.574 89.7621 296.077 106.146 295.88 136.545 295.683 155.495 295.289 158.456 289.574 170.102 286.224 177.209 280.707 186.091 277.16 189.842 260.806 207.41 220.017 233.269 165.238 260.707 127.996 279.46 106.321 293.475 102.577 300.778 100.607 305.121 100.607 307.49 103.365 314.596 106.912 323.676 116.567 335.125 122.282 336.902 127.602 338.679 133.119 334.731 138.637 325.256 145.336 313.609 162.085 298.212 174.499 291.896 186.519 285.974 219.425 274.722 225.14 274.722 230.066 274.722 273.022 296.041 280.313 302.16 284.845 305.911 284.254 308.082 278.145 310.451 275.19 311.635 268.49 314.596 263.17 317.36 257.85 319.926 252.727 322.097 251.938 322.097 247.209 322.097 229.081 336.902 210.362 356.05 197.948 368.683 187.898 377.368 185.731 377.368 183.563 377.171 178.44 375.789 174.105 374.21Z" fill="#F0E6D0" fill-rule="evenodd" transform="matrix(1 0 0 -1 2333 1344)"/><path d="M215.949 377.678C212.393 374.125 206.071 369.981 202.12 368.797 197.379 367.218 171.696 366.231 127.64 365.639 53.753 364.652 55.5313 365.047 55.5313 352.613 55.5313 349.456 54.1484 339.193 52.3701 329.72 50.5922 320.444 48.0241 305.84 46.4435 297.551 42.097 273.079 38.1459 252.554 35.5778 238.739 34.1948 231.634 32.8119 223.344 32.417 219.989 32.0216 216.832 30.2437 207.359 28.4655 198.872 23.9217 177.163 23.7241 177.361 48.0241 178.742 66.792 179.926 75.8798 178.939 99.9821 174.006 122.702 169.072 149.372 148.546 158.064 129.205 168.733 105.128 167.942 78.4845 156.089 54.4072 149.174 40.5922 142.852 33.2901 131.592 25.9876 102.155 6.84397 66.792 10.5939 44.2702 35.2636 35.7754 44.5392 35.7754 49.2758 43.6776 49.2758 55.136 49.2758 67.385 57.5648 73.5093 69.4063 81.4115 84.9975 75.8798 103.944 60.4704 114.798 42.8873 126.837 16.2168 119.535 5.54879 99.6021-2.15612 84.8-3.53904 72.7614 1.00508 56.1833 11.4754 16.9095 60.8653-7.7602 114.206-0.260647 158.459 5.8574 201.132 35.2636 217.727 70.9849 229.976 97.431 232.742 115.588 228.593 142.626 218.518 208.937 161.225 251.369 82.3995 250.58 70.3481 250.383 59.2847 250.383 58.0995 250.383 52.1728 250.777 58.2971 288.472 65.0141 293.604 67.5823 295.38 82.5967 295.972 129.023 295.972 189.871 295.775 197.774 296.564 197.774 302.682 197.774 304.261 201.527 313.34 206.269 322.813 230.173 371.757 232.742 377.875 230.964 381.428 228.395 386.362 223.456 385.178 215.949 377.678Z" fill="#F0E6D0" fill-rule="evenodd" transform="matrix(1 0 0 -1 2070 1361)"/><path d="M230.912 384.972C181.366 374.116 151.559 354.969 137.544 324.57 126.095 300.489 124.91 290.027 123.331 206.531 121.752 128.562 120.962 120.863 112.672 100.927 108.526 91.255 100.236 82.175 95.3011 82.175 88.7868 82.175 66.8759 71.516 49.5053 59.87 28.9761 46.0525-1.02809 11.904-1.02809 2.42928-1.02809-2.30807 2.1301-2.90019 7.06508 0.850028 17.5272 8.35086 40.0303 19.6023 55.2295 24.7343 76.1537 31.643 96.4854 34.8011 122.344 34.8011 157.086 34.8011 182.945 29.077 213.344 14.865 220.253 11.7065 226.964 9.14048 228.346 9.14048 229.728 9.14048 245.914 20.1944 264.075 33.8144 297.237 58.4882 300.79 62.8306 294.276 68.3575 291.907 70.1343 289.538 69.5422 282.827 65.7915L274.339 60.8567 259.534 67.7654C251.441 71.7131 242.164 75.6613 238.808 76.4505 235.649 77.2401 226.767 79.8061 219.068 82.175 204.263 86.5177 155.309 92.2418 146.821 90.6629 143.861 90.0704 141.097 90.4654 140.307 91.6497 139.715 92.6368 147.019 101.322 156.494 110.994 185.906 140.603 186.301 142.379 186.498 234.166 186.498 271.67 187.485 308.187 188.275 315.491 190.446 332.269 200.513 352.797 209.988 360.298 216.7 365.43 219.858 367.405 234.86 374.51 245.124 379.445 242.164 387.341 230.912 384.972Z" fill="#F0E6D0" fill-rule="evenodd" transform="matrix(1 0 0 -1 1731 1364)"/><path d="M63.199 315.35C42.6551 309.225 20.7284 290.057 5.91286 265.554-6.13676 245.794-1.59355 241.052 14.802 256.465L24.2838 265.357 43.6425 265.357C54.3098 265.357 68.3347 263.973 74.8533 262.392 81.3722 260.812 91.2489 259.626 96.9776 259.429 107.447 259.429 112.386 256.465 106.064 254.094 100.731 252.118 83.7425 239.866 75.2486 231.962 64.1864 221.686 58.853 209.633 57.0749 191.849 56.0875 179.992 55.0996 176.435 52.5317 175.645 50.754 175.25 44.4328 173.669 38.5068 172.286 18.3578 167.741 8.28349 158.651 1.76455 139.088-1.98845 127.232-1.59355 108.46 2.95007 98.7775 6.50542 91.0708 13.0244 92.2563 14.802 100.951 17.3703 113.203 29.2223 121.106 45.4206 121.106 55.0996 121.106 56.0875 118.735 56.0875 92.4541 55.8898 51.1549 47.5932 16.7722 35.5436 6.69417 24.0865-2.79073 47.3959-4.96443 64.5813 4.12542 85.3229 14.9935 103.101 37.718 113.966 67.5559 117.521 77.634 118.114 85.5379 119.497 150.747 121.077 225.836 122.065 237.099 128.979 251.722 134.312 262.788 138.856 267.728 154.856 280.572 187.647 306.458 197.722 327.207 170.066 311.596 161.77 307.051 159.399 306.656 142.609 307.249 130.954 307.841 117.127 310.015 104.484 313.374 82.1624 319.5 76.829 319.698 63.199 315.35Z" fill="#F0E6D0" fill-rule="evenodd" transform="matrix(1 0 0 -1 1713 1299)"/><path d="M0.531699 6.5275C-2.30213 3.45948-2.49115 2.11715-0.602059 0.199593 1.28703-1.52648 2.42079-1.14274 5.44326 2.50051 11.2995 9.78739 6.76566 13.431 0.531699 6.5275Z" fill="#F0E6D0" fill-rule="evenodd" transform="matrix(1 0 0 -1 2369 1529)"/><path d="M5.27285 77.0425C3.1149 76.4491 0.760656 75.0642-0.0240914 73.6793-2.57422 69.7227-1.78948 4.239 0.760656 1.66724 2.33015 0.0844376 10.9616-0.706965 26.2632-0.706965 47.6456-0.706965 49.4114-0.509015 49.4114 3.0521 49.4114 6.21731 47.2535 7.00872 33.3251 8.19562 24.3015 8.98702 15.4738 10.3719 13.708 11.3612 9.39248 13.735 8.80362 27.3857 12.7274 30.7488 14.2965 31.9361 21.751 33.5185 29.598 34.1124 40.9759 35.2993 43.526 36.0907 43.1338 38.6624 42.7413 41.0363 39.2105 42.0256 28.2248 42.817 12.5311 43.806 10.1768 45.5867 10.1768 55.8742 10.1768 64.7768 14.1006 66.953 31.9519 68.5354 49.2151 70.1182 52.1578 71.5031 46.665 75.6576 42.7413 78.4274 14.4927 79.2188 5.27285 77.0425Z" fill="#F0E6D0" fill-rule="evenodd" transform="matrix(1 0 0 -1 2169 1612)"/><path d="M0.462109 75.3286C-3.08443 70.9742-1.31096 6.64958 2.43232 2.09752 4.99355-0.871443 7.75192-1.26752 22.7258-0.079693 42.4287 1.50341 47.354 3.87866 55.8263 15.7541 60.9488 22.6814 61.5402 25.0563 61.5402 38.7129 61.5402 52.5675 60.9488 54.7447 55.6292 62.0677 46.9602 74.1408 37.503 78.2972 18.5887 78.2972 6.96416 78.2972 2.23518 77.5054 0.462109 75.3286ZM40.4581 61.2759C47.354 54.9423 49.7185 48.8068 49.7185 37.3274 49.7185 20.8999 39.6704 11.004 23.1201 11.004 19.5736 11.004 15.6332 12.1914 14.4511 13.7749 13.0719 15.358 11.4956 26.2437 10.9046 38.5148 9.52539 64.8386 10.3136 66.4221 24.8932 66.4221 32.9712 66.4221 36.1238 65.4323 40.4581 61.2759Z" fill="#F0E6D0" fill-rule="evenodd" transform="matrix(1 0 0 -1 2088 1614)"/><path d="M35.4701 73.3909C34.6722 70.843 33.276 57.7111 32.6777 43.9913 32.0793 30.2715 30.4835 17.3362 29.2869 15.1802 26.0956 9.10431 16.9203 9.88836 8.54287 16.944 1.76126 22.8237 1.56168 23.0198-0.632463 18.9039-2.22788 15.9642-2.22788 13.6121-0.233309 9.69225 2.95792 2.83235 10.1387-0.695657 20.3111-0.695657 30.4835-0.695657 37.6643 2.83235 40.8555 9.49614 44.0471 16.1599 47.6371 63.1991 45.6426 70.843 43.648 78.0947 37.8639 79.6628 35.4701 73.3909Z" fill="#F0E6D0" fill-rule="evenodd" transform="matrix(1 0 0 -1 2262 1614)"/><path d="M24.0431 78.1312C15.9298 75.5577 5.24459 67.0448 1.48474 59.72-0.889569 55.3645-1.87913 48.6335-1.87913 38.339-2.07672 24.481-1.68114 22.8975 4.65102 15.1765 14.347 2.90234 24.6366-1.84894 38.8837-0.463131 54.1203 0.922675 61.8372 5.87164 69.7525 18.7401 74.8971 27.4507 76.0847 31.6081 76.0847 40.5168 76.0847 49.8213 75.0951 52.989 68.9609 61.8977 64.4099 68.8268 59.4629 73.578 54.9115 75.3596 46.007 79.1213 31.1664 80.5071 24.0431 78.1312ZM47.3922 66.0552C56.8906 60.9077 59.4629 57.7403 62.2332 47.8416 65.3991 36.5575 60.0565 20.1259 51.35 14.7803 43.6327 10.0291 30.1772 9.63328 23.0535 13.9888 13.5555 19.5316 10.1916 26.263 10.1916 38.5371 10.1916 51.999 14.7426 61.1058 24.6366 66.2528 33.7387 71.2022 37.8941 71.0041 47.3922 66.0552Z" fill="#F0E6D0" fill-rule="evenodd" transform="matrix(1 0 0 -1 2328 1618)"/><path d="M21.2397 79.0838C14.9862 75.7169 4.62817 65.0218 1.50141 59.278-0.0621653 56.307-1.23465 48.583-1.23465 41.8486-1.23465 21.4487 8.34156 8.37674 28.6665 1.44464 37.0698-1.52598 38.4378-1.3282 46.2553 1.64281 66.1891 9.36721 75.7654 22.0428 75.7654 40.6604 75.5698 58.2875 68.339 70.7653 54.0724 78.2915 46.8416 81.8567 27.2984 82.4508 21.2397 79.0838ZM52.5088 66.0119C60.717 59.0798 63.2575 53.1382 63.2575 41.2545 63.2575 28.1826 58.9583 20.0622 49.5776 15.1107 31.9888 5.80207 10.491 20.4586 10.491 41.6508 10.491 50.9594 15.768 61.6549 22.8033 66.606 28.6665 70.7653 47.4278 70.3693 52.5088 66.0119Z" fill="#F0E6D0" fill-rule="evenodd" transform="matrix(1 0 0 -1 1962 1623)"/><path d="M-1.76854 77.3362C-2.95901 74.1599-0.776206 62.8434 5.37512 41.6006 7.55792 34.0565 10.1374 23.7329 10.9312 18.7695 12.9155 7.65208 16.884 1.10035 22.8368-0.289376 28.5914-1.87775 31.9647 1.10035 37.1241 12.4168 39.505 17.5784 42.6801 24.527 44.0692 27.7034 56.57 54.7037 62.9198 69.3951 62.9198 71.5787 62.9198 78.329 47.4425 70.5862 47.0454 63.8362 47.0454 61.4537 27.4009 20.7548 26.4086 20.7548 25.8133 20.7548 24.4243 22.3431 23.4324 24.527 20.8525 29.2918 11.3279 65.0273 11.3279 69.792 11.3279 73.9612 5.57366 80.3143 1.60475 80.3143 0.41427 80.3143-1.1733 78.9246-1.76854 77.3362Z" fill="#F0E6D0" fill-rule="evenodd" transform="matrix(1 0 0 -1 2422 1624)"/><path d="M13.8923 78.9288-1.1081 75.551-0.907978 68.5967C-0.508145 54.4896 4.09214 13.7571 6.09211 6.40552 7.69224 0.245612 8.89214-1.14526 12.4922-0.548828 16.4922 0.0472024 16.892 1.23926 16.892 13.9559L16.892 27.6658 30.8922 31.242C49.0924 36.0106 55.8924 42.7666 55.8924 55.8804 55.8924 67.4046 50.6921 74.955 39.8922 79.3264 35.4921 81.1145 31.0923 82.5054 30.2922 82.3066 29.4922 82.3066 22.0922 80.7169 13.8923 78.9288ZM40.0924 65.4177C45.8921 60.2514 45.0925 49.9193 38.6923 45.7467 32.692 41.7729 20.0923 39.786 16.6923 42.1705 15.492 42.965 13.8923 47.9324 13.2919 53.2971 12.092 61.2451 12.692 63.4308 16.0919 66.8086 19.4919 70.1863 21.8921 70.7824 28.2923 69.9875 32.692 69.3915 37.8923 67.4046 40.0924 65.4177Z" fill="#F0E6D0" fill-rule="evenodd" transform="matrix(1 0 0 -1 1887 1630)"/><path d="M7.16798 76.2833C5.60129 73.908 3.25165 63.4179 2.27237 53.1256 1.09755 42.8332-0.46914 29.5717-1.44842 23.6339-3.40658 10.7682-1.44842 4.23666 4.62201 3.04918 19.1129-0.117951 40.6531-1.70112 43.982 0.0800948 50.6403 3.84096 46.1361 6.80965 30.8623 9.185 13.6299 11.758 10.105 13.9353 10.105 21.4566 10.105 31.1553 14.2173 34.322 27.3374 34.5201 38.3035 34.7181 46.528 37.8848 44.3739 41.4477 43.7865 42.2394 38.3035 43.625 32.233 44.4163 16.3714 46.3956 14.0218 47.9792 14.0218 57.2821 14.0218 61.4387 15.1966 65.5948 16.5673 66.5847 17.7421 67.3764 26.5541 67.7721 35.9534 67.5745 53.1858 66.9804 57.6896 68.5639 53.1858 74.106 50.8358 76.877 45.1572 77.8669 22.4418 79.8461 11.0843 80.8356 9.90949 80.6375 7.16798 76.2833Z" fill="#F0E6D0" fill-rule="evenodd" transform="matrix(1 0 0 -1 2496 1633)"/><path d="M50.811 77.6817C50.2142 75.6922 50.6119 67.3362 52.0046 58.9801 54.5909 42.069 54.79 20.9802 52.6014 17.7971 49.816 13.8178 41.2613 9.04296 36.6851 9.04296 34.0988 9.04296 29.523 10.4356 26.3396 12.0274 19.3762 15.6086 15.3972 27.5458 12.4132 52.8126 10.2246 71.116 7.0411 77.2835 1.47038 72.7078-1.11591 70.5192-1.51364 67.5348-0.320032 55.9957 0.475842 48.2365 2.26626 37.891 3.65894 32.9175 5.25069 27.9436 6.4443 21.9752 6.4443 19.3885 6.4443 17.0013 9.42873 11.6296 13.2086 7.65029 19.1775 1.08506 20.9679 0.289189 31.7116-0.506681 45.8371-1.50122 55.9836 2.47773 62.3502 11.4306 66.3291 16.8022 66.5282 19.1898 65.5333 38.4882 64.3396 63.954 60.5597 79.273 55.5858 80.2679 53.795 80.6657 51.6069 79.4721 50.811 77.6817Z" fill="#F0E6D0" fill-rule="evenodd" transform="matrix(1 0 0 -1 1806 1638)"/><path d="M8.92757 86.1133C6.36738 81.9409-2.10144 32.4689-2.29811 18.9586-2.49517 13.1967-1.70732 11.8059 1.83777 11.4087 5.57953 10.8123 6.36738 12.4019 9.12463 24.7202 10.897 32.2701 12.2756 41.012 12.2756 43.7936 12.2756 54.5227 20.5474 61.4767 23.5017 53.3307 24.0925 51.3436 26.6527 44.986 29.2132 39.4229 44.7719 4.85196 48.9077-1.70439 54.816-0.512396 57.9669 0.0835993 59.3456 4.65316 63.8756 31.8729 71.3595 76.1789 71.3595 75.3846 65.2542 76.1789 60.5275 76.7753 60.1334 75.9805 57.9669 66.245 56.7854 60.4831 55.2097 51.1452 54.6189 45.7808 53.8311 40.2177 52.6495 34.4557 51.665 33.0649 49.6956 29.6873 44.1811 31.6741 42.6054 36.2437 41.2268 40.0189 34.5307 55.1187 27.4405 70.6158 20.3507 85.9145 12.8668 92.0736 8.92757 86.1133Z" fill="#F0E6D0" fill-rule="evenodd" transform="matrix(1 0 0 -1 2563 1648)"/><path d="M15.4817 78.4449C-0.82768 74.4818-2.41897 72.5003 0.166577 60.4128 1.36025 55.2605 3.74678 42.3803 5.53669 32.076 10.1116 6.51351 12.6971-0.619954 17.4706-0.619954 21.0508-0.619954 21.4484 0.568889 20.8518 12.8547 19.6585 36.6335 26.0233 38.0206 45.7138 18.007 53.8685 9.68429 60.6309 4.33369 62.0232 5.12639 66.0014 7.70275 64.4101 14.0435 57.6477 21.5735 45.1172 36.0391 45.3162 34.8503 51.0839 46.5416 55.8574 56.2514 56.2554 57.8364 53.8685 64.772 49.095 78.8415 36.1669 83.399 15.4817 78.4449ZM40.9403 63.3849C44.5205 58.4313 44.7196 57.4403 42.3326 52.6845 39.349 47.3343 29.0064 41.9841 21.2498 41.9841 16.0783 41.9841 14.487 45.5507 13.8904 57.8364 13.4928 67.7445 16.2773 69.9243 28.2112 69.3299 35.1722 68.9334 37.7582 67.5463 40.9403 63.3849Z" fill="#F0E6D0" fill-rule="evenodd" transform="matrix(1 0 0 -1 1733 1653)"/><path d="M13.2631 82.6812C11.0844 80.4955 9.50032 76.5206 9.50032 73.5399 9.50032 70.5588 8.31174 63.206 6.72762 57.2438-4.75953 11.3374-4.9573 7.95901 3.16265 6.36905 6.13352 5.57407 14.0553 3.78566 20.7889 2.1957 37.0292-1.57996 47.1296-1.57996 47.1296 2.39454 47.1296 5.97176 37.227 11.3374 30.2952 11.3374 27.3247 11.3374 21.9771 12.7285 18.2144 14.5169 10.4903 18.293 9.50032 23.6586 14.6494 33.3964 17.0262 38.3647 18.6103 39.3581 21.9771 38.3647 24.3539 37.5697 31.4838 36.3775 37.8211 35.7813 47.1296 34.7875 49.1101 35.1848 49.1101 37.5697 49.1101 42.1404 44.7528 44.9226 34.2565 46.9099 29.107 47.9037 23.1657 50.2882 21.1852 52.4743 18.0162 55.6542 17.8184 57.0454 19.7989 63.6032 21.9771 70.36 22.5716 70.9561 29.7011 70.9561 34.0583 70.9561 41.386 69.9627 46.3374 68.7704 54.0614 66.7828 55.8437 66.9816 58.6164 69.7638 60.5968 71.7511 60.9931 73.5399 60.0027 74.5333 57.6259 76.5206 44.1587 80.4955 28.5129 83.8738 17.8184 86.0595 16.6299 86.0595 13.2631 82.6812Z" fill="#F0E6D0" fill-rule="evenodd" transform="matrix(1 0 0 -1 2642 1660)"/><path d="M17.7167 75.8993C5.7828 67.797-0.673124 55.7424-0.673124 42.304-0.673124 31.6327 4.60907 18.1947 11.4565 12.0686 17.7167 6.13971 30.6289-0.579278 35.9115-0.579278 40.9979-0.579278 53.3233 4.75636 58.8012 9.30186 60.7576 10.8825 65.6487 12.2659 69.5614 12.2659 75.4304 12.2659 76.7999 13.0564 77.1914 16.8114 78.1694 23.7277 73.6698 42.304 69.9525 47.0468 66.6266 51.1969 66.0398 51.1969 55.8665 48.8256 44.128 46.0589 40.4111 43.8851 40.4111 39.34 40.4111 36.9683 42.1717 36.5733 49.2148 37.5611 55.6708 38.5494 58.6055 38.154 60.9533 35.7827 64.6703 31.8304 64.6703 31.8304 59.975 24.1232 56.0623 17.6015 53.9102 16.2182 43.9326 13.2542 31.4115 9.4992 17.5213 19.1826 12.826 34.7945 9.6955 45.6635 12.0434 55.3469 19.8688 63.6469 25.5425 69.3781 27.8899 70.5637 34.9331 70.5637 39.6284 70.3659 45.4975 69.1803 48.2365 67.5992 50.9754 66.0186 55.0839 64.8326 57.4317 64.6352 65.0618 64.6352 64.8661 68.9826 57.0402 75.8993 50.3886 81.6304 48.2365 82.421 38.2589 82.421 28.8683 82.421 25.7382 81.4327 17.7167 75.8993Z" fill="#F0E6D0" fill-rule="evenodd" transform="matrix(1 0 0 -1 1648 1672)"/><path d="M24.4524 77.0431C16.7559 76.0579 9.05896 66.2082 9.05896 57.3437 9.05896 49.0704 11.8219 45.3274 26.4264 33.5078 34.1229 27.0073 36.6888 23.8557 36.6888 19.7188 36.6888 13.0208 33.3338 9.67202 27.0184 9.67202 17.5454 9.67202 13.598 12.0361 9.05896 19.7188 2.1515 32.1289-6.33452 27.0073-0.80895 13.8088 3.13845 3.95955 11.8219-0.571485 26.2289-0.571485 43.3988-0.571485 48.5298 3.76244 48.5298 18.7337 48.5298 28.9772 48.5298 28.9772 34.5178 41.1906 23.2684 51.4341 20.9004 54.5862 21.2949 58.7226 21.6899 62.0718 23.6634 64.4355 27.0184 65.6173 34.9124 68.3752 41.8198 65.6173 46.5563 57.935 53.8583 46.1154 64.1208 51.0403 57.0162 63.2536 50.8983 73.3 37.6754 79.0129 24.4524 77.0431Z" fill="#F0E6D0" fill-rule="evenodd" transform="matrix(1 0 0 -1 2710 1672)"/><path d="M394.045 289.721C345.647 287.354 262.086 280.056 233.442 275.717 226.331 274.731 211.317 272.956 199.86 271.97 188.402 270.983 175.957 269.208 172.204 268.025 168.45 267.039 162.129 266.053 158.376 266.053 154.622 266.053 144.943 264.869 136.646 263.292 128.547 261.714 113.336 258.952 103.063 257.177 85.0867 254.021 74.2218 251.852 43.405 245.146 13.9709 238.835 3.30372 236.073 0.933013 234.101-2.4252 231.339-2.4252 219.703 0.933013 217.139 3.69864 214.772 23.6506 217.533 56.6406 224.437 67.5054 226.803 80.9383 229.564 86.4695 230.551 92.0008 231.537 100.298 233.115 104.644 234.298 108.99 235.481 117.089 236.665 122.62 236.665 134.473 237.059 137.633 235.087 167.265 211.024 178.13 202.149 200.848 184.398 217.639 171.578 245.295 150.868 262.481 138.443 305.348 109.449 322.337 97.8122 366.982 70.7914 368.957 70.7914 369.748 70.7914 371.921 69.6077 373.501 68.0301 378.637 63.6908 403.33 50.6733 450.741 27.2023 475.236 15.1712 497.558 4.12605 500.522 2.54846 507.04-1.00183 518.695-1.00183 525.412 2.54846 528.375 4.12605 550.698 15.1712 575.193 27.2023 599.689 39.2338 624.974 52.2513 631.493 55.9985 638.012 59.7462 644.729 63.4934 646.309 64.2824 662.508 71.7773 713.079 103.926 763.848 138.837 780.639 150.474 832.593 189.723 848.791 203.135 855.31 208.46 867.558 218.322 876.053 224.831L891.658 236.862 905.684 235.876C913.586 235.481 926.624 233.509 934.723 231.931 973.244 223.844 992.208 220.097 1005.64 218.125 1020.26 215.955 1020.26 215.955 1024.8 221.478 1030.14 227.395 1030.73 231.142 1027.17 234.101 1024.21 236.468 1007.62 240.807 984.109 245.343 974.824 247.118 961.589 249.879 954.477 251.457 911.61 260.53 820.543 273.942 774.712 277.887 764.44 278.873 751.205 280.451 745.278 281.634 739.549 282.818 726.117 283.804 715.647 283.804 705.177 284.001 687.003 285.185 674.953 286.762 649.074 290.312 445.999 292.285 394.045 289.721ZM610.751 268.222C720.783 263.292 845.236 249.288 851.952 241.201 854.718 237.651 848.989 232.128 818.765 208.46 761.675 163.885 721.573 135.484 682.262 112.013 674.36 107.279 665.47 101.757 662.508 99.9818 659.544 98.0096 655.791 95.8399 654.211 95.0509 652.63 94.2619 645.914 90.5147 639.395 86.7671 620.43 75.7219 594.355 62.1128 559.39 45.1507 541.413 36.2752 524.424 27.9913 521.461 26.4137 518.695 24.8357 514.942 23.4551 513.362 23.4551 508.621 23.4551 397.601 80.0612 381.6 90.5147 380.02 91.698 377.254 93.0786 375.674 93.8676 368.167 97.2206 330.436 120.692 302.978 139.231 269.79 161.519 181.883 227.198 174.574 235.087L169.833 240.018 174.574 243.174C176.945 244.752 184.056 246.724 189.983 247.315 195.909 247.907 208.354 249.682 217.639 251.26 260.308 258.361 327.276 264.081 412.219 268.025 438.295 269.208 461.408 270.589 463.581 270.983 469.902 272.167 559.982 270.392 610.751 268.222Z" fill="#F0E6D0" fill-rule="evenodd" transform="matrix(1 0 0 -1 1671 1985)"/></g></svg>